<?xml version="1.0" encoding="utf-8"?>
<!-- Generator: Adobe Illustrator 25.4.1, SVG Export Plug-In . SVG Version: 6.00 Build 0)  -->
<svg version="1.1" id="Laag_1" xmlns="http://www.w3.org/2000/svg" xmlns:xlink="http://www.w3.org/1999/xlink" x="0px" y="0px"
	 viewBox="0 0 24 24" style="enable-background:new 0 0 24 24;" xml:space="preserve">
<style type="text/css">
	.st0{fill:#FFFFFF;}
</style>
<path class="st0" d="M12,2c5.5,0,10,4.5,10,10s-4.5,10-10,10C6.5,22,2,17.5,2,12S6.5,2,12,2z M12,3.5c-4.7,0-8.5,3.8-8.5,8.5
	s3.8,8.5,8.5,8.5s8.5-3.8,8.5-8.5S16.7,3.5,12,3.5z M10.5,8.2c0,0-1.5,1.5-3.3,3.3C7.1,11.6,7,11.8,7,12s0.1,0.4,0.2,0.5
	c1.8,1.8,3.3,3.3,3.3,3.3c0.1,0.1,0.3,0.2,0.5,0.2c0.2,0,0.4-0.1,0.5-0.2c0.3-0.3,0.3-0.8,0-1.1l-2-2h6.7c0.4,0,0.8-0.3,0.8-0.8
	s-0.3-0.8-0.8-0.8H9.6l2-2c0.3-0.3,0.3-0.8,0-1.1C11.4,8.1,11.2,8,11,8C10.8,8,10.6,8.1,10.5,8.2z"/>
</svg>
