<?xml version="1.0" encoding="utf-8"?>
<!-- Generator: Adobe Illustrator 25.4.1, SVG Export Plug-In . SVG Version: 6.00 Build 0)  -->
<svg version="1.1" id="Laag_1" xmlns="http://www.w3.org/2000/svg" xmlns:xlink="http://www.w3.org/1999/xlink" x="0px" y="0px"
	 viewBox="0 0 24 24" style="enable-background:new 0 0 24 24;" xml:space="preserve">
<style type="text/css">
	.st0{fill:#FFFFFF;}
</style>
<path class="st0" d="M12,2C6.5,2,2,6.5,2,12s4.5,10,10,10s10-4.5,10-10S17.5,2,12,2z M12,3.5c4.7,0,8.5,3.8,8.5,8.5
	s-3.8,8.5-8.5,8.5S3.5,16.7,3.5,12S7.3,3.5,12,3.5z M13.5,8.2c0,0,1.5,1.5,3.3,3.3c0.1,0.1,0.2,0.3,0.2,0.5s-0.1,0.4-0.2,0.5
	c-1.8,1.8-3.3,3.3-3.3,3.3C13.4,15.9,13.2,16,13,16c-0.2,0-0.4-0.1-0.5-0.2c-0.3-0.3-0.3-0.8,0-1.1l2-2H7.8C7.4,12.7,7,12.4,7,12
	s0.3-0.8,0.8-0.8h6.7l-2-2c-0.3-0.3-0.3-0.8,0-1.1C12.6,8.1,12.8,8,13,8C13.2,8,13.4,8.1,13.5,8.2z"/>
</svg>
